<svg xmlns="http://www.w3.org/2000/svg" width="320" height="64" fill="none"><g clip-path="url(#a)"><path fill="#eae5df" d="M320 64H0V0h320zM172.492 20v10.574c0 9.948 5.633 13.426 18.063 13.426h1.163c12.429 0 18.062-3.478 18.062-13.426V20h-10.903v10.33c0 4.66-2.217 6.714-7.305 6.714h-.872c-5.088 0-7.305-2.053-7.305-6.714V20zm57.758 4.744c-4.143-7.057-18.642-6.305-18.642 2.715 0 8.996 18.542 16.497 18.642 16.537 0 0 18.643-7.517 18.643-16.537s-14.5-9.772-18.643-2.715M24 20v23.652h10.903v-6.434h9.486c2.544 0 3.307.904 3.489 2.677l.4 3.757h11.52l-.617-5.182c-.291-2.505-1.127-4.105-4.144-4.73 3.162-.87 4.725-2.957 4.725-5.983v-.418c0-4.765-3.053-7.339-12.502-7.339zm37.799 0v23.652H93.78v-6.957H72.702v-2.26h17.953v-5.217H72.702v-2.262h21.08V20zm34 0v23.652h20.608c10.685 0 16.572-3.06 16.572-11.547v-.557c0-8.487-5.887-11.548-16.572-11.548zm39.148 0v23.652h10.904v-6.434h9.485c2.544 0 3.307.904 3.489 2.677l.4 3.757h11.521l-.618-5.182c-.291-2.504-1.126-4.105-4.143-4.73 3.162-.87 4.725-2.957 4.725-5.983v-.418c0-4.765-3.054-7.339-12.503-7.339zm116.024 0v23.652h10.539V29.704l7.16 13.948h9.449l7.159-13.948v13.948H296V20h-15.373l-7.087 14.156L266.344 20zm-136.018 6.956c4.325 0 6.76 1.148 6.76 4.73v.279c0 3.582-2.435 4.73-6.76 4.73h-8.25v-9.739zm-70.055 0c2.725 0 3.78.488 3.78 1.774v.105c0 1.287-1.055 1.773-3.78 1.773h-9.995v-3.652zm110.947 0c2.725 0 3.78.488 3.78 1.774v.105c0 1.287-1.055 1.773-3.78 1.773h-9.994v-3.652z"/></g><defs><clipPath id="a"><path fill="#fff" d="M0 0h320v64H0z"/></clipPath></defs></svg>
