<svg xmlns="http://www.w3.org/2000/svg" width="272" height="24" fill="none"><path fill="#b90a16" d="M206.25 4.745c-4.142-7.058-18.642-6.306-18.642 2.714s18.642 16.537 18.642 16.537 18.643-7.517 18.643-16.537-14.5-9.772-18.643-2.714"/><path fill="#eae5df" d="M10.903 17.217v6.435H0V0h23.26c9.45 0 12.502 2.574 12.502 7.34v.417c0 3.026-1.563 5.113-4.724 5.982 3.016.626 3.852 2.226 4.143 4.73l.617 5.183h-11.52l-.4-3.756c-.182-1.774-.945-2.679-3.49-2.679zm13.774-8.382V8.73c0-1.287-1.054-1.773-3.78-1.773h-9.994v3.652h9.995c2.725 0 3.78-.487 3.78-1.774M37.799 23.652V0H69.78v6.957h-21.08v2.26h17.955v5.218H48.702v2.26h21.08v6.957zM108.979 12.104c0 8.487-5.887 11.548-16.572 11.548H71.8V0h20.607c10.685 0 16.572 3.06 16.572 11.548zm-11.266-.139v-.278c0-3.583-2.435-4.73-6.76-4.73h-8.25v9.739h8.25c4.325 0 6.76-1.148 6.76-4.73M121.851 17.217v6.435h-10.904V0h23.26c9.45 0 12.503 2.574 12.503 7.34v.417c0 3.026-1.563 5.113-4.725 5.982 3.016.626 3.852 2.226 4.143 4.73l.618 5.183h-11.521l-.4-3.756c-.181-1.774-.945-2.679-3.489-2.679zm13.774-8.382V8.73c0-1.287-1.054-1.773-3.78-1.773h-9.994v3.652h9.994c2.726 0 3.78-.487 3.78-1.774M159.395 10.33c0 4.661 2.217 6.714 7.305 6.714h.872c5.088 0 7.305-2.053 7.305-6.714V0h10.903v10.574c0 9.948-5.633 13.426-18.062 13.426h-1.163c-12.43 0-18.063-3.478-18.063-13.426V0h10.903zM226.97 23.652V0h15.374l7.196 14.157L256.627 0H272v23.652h-10.721V9.704l-7.16 13.948h-9.449l-7.16-13.948v13.948z"/></svg>
