<svg width="16" height="16" viewBox="0 0 16 16" fill="none" xmlns="http://www.w3.org/2000/svg">
<path fill-rule="evenodd" clip-rule="evenodd" d="M0.616 12.5106C0.74 12.566 0.872 12.5915 1 12.5915L1.004 12.5872C1.26 12.5872 1.516 12.4808 1.708 12.2766L3.648 10.2128H10.2C10.7831 10.2116 11.3421 9.96469 11.7545 9.52602C12.1668 9.08735 12.3989 8.49271 12.4 7.87234V2.34042C12.3989 1.72005 12.1668 1.12541 11.7545 0.686737C11.3421 0.248066 10.7831 0.00112489 10.2 0H2.2C1.61685 0.00112489 1.05788 0.248066 0.645533 0.686737C0.233182 1.12541 0.00105739 1.72005 0 2.34042V11.5277C0 11.9617 0.24 12.3447 0.616 12.5106ZM1.2 2.34042C1.2 1.75319 1.648 1.2766 2.2 1.2766H10.2C10.752 1.2766 11.2 1.75319 11.2 2.34042V7.87234C11.2 8.45957 10.752 8.93617 10.2 8.93617H3.152L1.2 11.0128V2.34042ZM14.292 15.6851C14.484 15.8894 14.74 15.9957 15 15.9957V16C15.1315 16.0006 15.2617 15.9734 15.3833 15.9202C15.5049 15.8669 15.6153 15.7886 15.7083 15.6897C15.8012 15.5908 15.8749 15.4733 15.9249 15.3439C15.975 15.2146 16.0005 15.076 16 14.9362V6.17447C15.9989 5.55409 15.7668 4.95945 15.3545 4.52078C14.9421 4.08211 14.3831 3.83517 13.8 3.83404H13.6V5.11064H13.8C14.352 5.11064 14.8 5.58723 14.8 6.17447V14.4213L13.248 12.7702H7.8C7.248 12.7702 6.8 12.2936 6.8 11.7064V11.4894H5.6V11.7064C5.60105 12.3268 5.83318 12.9214 6.24553 13.3601C6.65788 13.7987 7.21685 14.0457 7.8 14.0468H12.752L14.292 15.6851Z" fill="#0A0A0A"/>
</svg>
