<svg width="64" height="64" viewBox="0 0 64 64" fill="none" xmlns="http://www.w3.org/2000/svg">
<g clip-path="url(#clip0_147_27)">
<rect width="64" height="64" rx="32" fill="#0A0A0A"/>
<path d="M58.9136 17.4891C50.9136 3.37055 22.9136 4.8743 22.9136 22.9194C22.9136 40.9646 58.9136 56.0026 58.9136 56.0026C58.9136 56.0026 94.9136 40.9646 94.9136 22.9194C94.9136 4.8743 66.9136 3.37055 58.9136 17.4891Z" fill="#B90A16"/>
<path d="M-8.98472 42.9386V55.9974H-30.9136V7.99741H15.8681C34.8732 7.99741 41.0133 13.2209 41.0133 22.8915V23.7386C41.0133 29.8798 37.8701 34.1151 31.5107 35.8798C37.5777 37.1503 39.2589 40.3974 39.8437 45.4798L41.0864 55.9974H17.9148L17.1107 48.3739C16.7452 44.7739 15.2102 42.9386 10.0935 42.9386H-8.98472ZM18.7188 25.9268V25.7151C18.7188 23.1033 16.599 22.1151 11.1168 22.1151H-8.98472V29.5268H11.1168C16.599 29.5268 18.7188 28.5386 18.7188 25.9268Z" fill="#EAE5DF"/>
</g>
<defs>
<clipPath id="clip0_147_27">
<rect width="64" height="64" rx="32" fill="white"/>
</clipPath>
</defs>
</svg>
