<svg xmlns="http://www.w3.org/2000/svg" width="64" height="64" fill="none"><g clip-path="url(#a)"><rect width="64" height="64" fill="#0a0a0a" rx="32"/><path fill="#b90a16" d="M45.373 24.745c-4.14-7.058-18.627-6.306-18.627 2.715S45.373 44 45.373 44 64 36.482 64 27.46s-14.487-9.773-18.627-2.715"/><path fill="#eae5df" d="M10.894 37.22v6.436H0V20h23.24c9.442 0 12.493 2.574 12.493 7.34v.418c0 3.026-1.562 5.114-4.721 5.983 3.014.626 3.85 2.227 4.14 4.731l.617 5.184H24.258l-.4-3.757c-.181-1.775-.944-2.679-3.486-2.679zm13.763-8.384v-.104c0-1.287-1.053-1.774-3.777-1.774h-9.986v3.652h9.986c2.724 0 3.777-.487 3.777-1.774"/></g><defs><clipPath id="a"><rect width="64" height="64" fill="#fff" rx="32"/></clipPath></defs></svg>
