<svg xmlns="http://www.w3.org/2000/svg" width="180" height="180" fill="none"><path fill="#0a0a0a" d="M0 0h180v180H0z"/><path fill="#b90a16" d="M127.612 69.596C115.97 49.744 75.224 51.86 75.224 77.232s52.388 46.518 52.388 46.518S180 102.605 180 77.232s-40.746-27.488-52.388-7.636"/><path fill="#eae5df" d="M30.64 104.681v18.101H0V56.25h65.365c26.554 0 35.133 7.24 35.133 20.644v1.175c0 8.512-4.391 14.382-13.277 16.828 8.477 1.761 10.826 6.262 11.643 13.307l1.737 14.578H68.225L67.1 112.215c-.51-4.99-2.655-7.534-9.805-7.534zm38.708-23.58v-.293c0-3.62-2.962-4.99-10.622-4.99H30.64v10.274h28.086c7.66 0 10.622-1.37 10.622-4.99"/></svg>
