<svg width="64" height="64" viewBox="0 0 64 64" fill="none" xmlns="http://www.w3.org/2000/svg">
<g clip-path="url(#clip0_162_89)">
<rect width="64" height="64" rx="32" fill="#0A0A0A"/>
<path d="M54.0445 21.6816C48.3556 11.6417 28.4445 12.7111 28.4445 25.5432C28.4445 38.3753 54.0445 49.069 54.0445 49.069C54.0445 49.069 79.6445 38.3753 79.6445 25.5432C79.6445 12.7111 59.7333 11.6417 54.0445 21.6816Z" fill="#B90A16"/>
<path d="M-0.0505129 39.7781V49.0644H-15.6444V14.931H17.6226C31.1373 14.931 35.5036 18.6456 35.5036 25.5224V26.1248C35.5036 30.4918 33.2685 33.5036 28.7462 34.7585C33.0606 35.662 34.2561 37.971 34.6719 41.5852L35.5556 49.0644H19.078L18.5062 43.6432C18.2463 41.0832 17.1548 39.7781 13.5162 39.7781H-0.0505129ZM19.6498 27.6808V27.5303C19.6498 25.673 18.1424 24.9703 14.2439 24.9703H-0.0505129V30.2408H14.2439C18.1424 30.2408 19.6498 29.5381 19.6498 27.6808Z" fill="#EAE5DF"/>
</g>
<defs>
<clipPath id="clip0_162_89">
<rect width="64" height="64" rx="32" fill="white"/>
</clipPath>
</defs>
</svg>
